<?xml version="1.0" encoding="UTF-8"?>
<svg width="128px" height="128px" viewBox="0 0 128 128" version="1.1" xmlns="http://www.w3.org/2000/svg" xmlns:xlink="http://www.w3.org/1999/xlink">
    <!-- Generator: Sketch 47.1 (45422) - http://www.bohemiancoding.com/sketch -->
    <title>notes</title>
    <desc>Created with Sketch.</desc>
    <defs></defs>
    <g id="Page-1" stroke="none" stroke-width="1" fill="none" fill-rule="evenodd">
        <g id="notes" fill-rule="nonzero" fill="currentColor">
            <g transform="translate(17.000000, 13.000000)" id="Shape">
                <path d="M89.5238948,0 L4.47619474,0 C2.01070668,0 0,2.01172435 0,4.47826087 L0,98.5217391 C0,100.988365 2.0107962,103 4.47619474,103 L67.1429211,103 C68.2619698,103 69.3810185,102.55392 70.2726765,101.653029 L92.6536501,79.2617243 C93.5541262,78.3695652 94,77.25 94,76.1305243 L94,4.47835043 C94,2.01172435 91.9892038,8.95652174e-05 89.5238053,8.95652174e-05 L89.5238948,0 Z M8.95238948,8.95652174 L85.0477,8.95652174 L85.0477,71.6521739 L62.6667263,71.6521739 L62.6667263,94.0434783 L8.95238948,94.0434783 L8.95238948,8.95652174 Z M69.3810185,38.0652174 L33.5714605,38.0652174 L33.5714605,29.1086957 L69.3810185,29.1086957 L69.3810185,38.0652174 Z M69.3810185,55.9782609 L24.6190711,55.9782609 L24.6190711,47.0217391 L69.3810185,47.0217391 L69.3810185,55.9782609 Z"></path>
            </g>
        </g>
    </g>
</svg>
