<?xml version="1.0" encoding="UTF-8"?>
<svg width="128px" height="128px" viewBox="0 0 128 128" version="1.1" xmlns="http://www.w3.org/2000/svg" xmlns:xlink="http://www.w3.org/1999/xlink">
    <!-- Generator: Sketch 47.1 (45422) - http://www.bohemiancoding.com/sketch -->
    <title>preview</title>
    <desc>Created with Sketch.</desc>
    <defs></defs>
    <g id="Page-1" stroke="none" stroke-width="1" fill="none" fill-rule="evenodd">
        <g id="preview" fill-rule="nonzero" fill="currentColor">
            <g transform="translate(5.000000, 31.000000)" id="Shape">
                <path d="M118.994051,33.278608 C118.989403,33.2276814 118.984754,33.1813853 118.984754,33.1350928 C118.980106,33.1119448 118.980106,33.0841674 118.980106,33.0610182 C118.975458,33.0239809 118.970809,32.9915729 118.966161,32.9545356 C118.961513,32.9128689 118.956865,32.8712022 118.947568,32.8295332 C118.947568,32.8249038 118.94292,32.8202732 118.94292,32.8156439 C118.798831,31.8989673 118.361899,31.0424749 117.697177,30.3804255 C113.899618,25.8989694 109.386194,21.9128059 104.79352,18.2689265 C94.9068238,10.4216376 83.5936337,3.85222498 71.1124031,1.20805685 C63.8937801,-0.315154666 56.6332713,-0.379866266 49.3770463,0.911758311 C42.7765946,2.08769609 36.4174618,4.53217086 30.4677857,7.55998633 C21.1528538,12.3007629 12.642556,18.8378197 5.22806965,26.1663492 C3.85690729,27.5228039 2.49026669,28.9071106 1.2445235,30.3793588 C-0.414841167,32.3376551 -0.414841167,34.6618208 1.2445235,36.6201171 C5.04208278,41.1015732 9.55550708,45.0877366 14.1481811,48.731616 C24.0395176,56.578905 35.348067,63.1435768 47.8340573,65.7877449 C55.0480396,67.3155787 62.3131891,67.3804088 69.5646544,66.0886776 C76.1604653,64.9127398 82.5194792,62.468265 88.473915,59.4404495 C97.7888469,54.699673 106.299145,48.1626162 113.713631,40.8340867 C115.084793,39.477632 116.451434,38.0933252 117.697177,36.6210771 C118.361863,35.9590395 118.794155,35.1026063 118.94292,34.1812364 C118.94292,34.1766059 118.94292,34.1719765 118.947568,34.1673471 C118.956865,34.1256804 118.961513,34.0840138 118.966161,34.0423447 C118.970809,34.0099379 118.975458,33.9729006 118.980106,33.9358633 C118.984754,33.9127141 118.984754,33.8895661 118.984754,33.8617887 C118.989403,33.8154914 118.994051,33.7691942 118.994051,33.7182735 C118.998699,33.6441989 118.998699,33.5701242 118.998699,33.4960496 C119.003346,33.4266043 118.994051,33.3525345 118.994051,33.2784598 L118.994051,33.278608 Z M59.5020493,56.3069302 C46.8542278,56.3069302 36.6053157,46.0984974 36.6053157,33.5014245 C36.6053157,20.9087367 46.8545847,10.6959188 59.5020493,10.6959188 C72.1495138,10.6959188 82.3987828,20.9043515 82.3987828,33.5014245 C82.3987828,46.0941122 72.1495138,56.3069302 59.5020493,56.3069302 Z"></path>
                <path d="M67,33.5022962 C67,37.6420951 63.6410667,41 59.5,41 C55.3589333,41 52,37.6420951 52,33.5022962 C52,29.3579049 55.3589333,26 59.5,26 C63.6410667,26 67,29.3579049 67,33.5022962"></path>
            </g>
        </g>
    </g>
</svg>
