<?xml version="1.0" encoding="UTF-8"?>
<svg width="128px" height="127px" viewBox="0 0 128 127" version="1.1" xmlns="http://www.w3.org/2000/svg" xmlns:xlink="http://www.w3.org/1999/xlink">
    <!-- Generator: Sketch 47.1 (45422) - http://www.bohemiancoding.com/sketch -->
    <title>Shape</title>
    <desc>Created with Sketch.</desc>
    <defs></defs>
    <g id="Page-1" stroke="none" stroke-width="1" fill="none" fill-rule="evenodd">
        <g id="spinner" transform="translate(0.000000, -1.000000)" fill-rule="nonzero" fill="currentcolor">
            <g id="np_ring_736269_000000" transform="translate(0.000000, 1.000000)">
                <path d="M63.9998578,128 C55.3221038,128 46.9333428,126.294492 39.1111901,123.022283 C31.4335339,119.750074 24.6060746,115.200156 18.7721709,109.366841 C12.9388361,103.533526 8.25009555,96.7114935 5.11668341,89.0278897 C1.70565595,81.0668136 0,72.6782228 0,63.9999289 C0,56.6056015 5.97214247,50.4889829 13.510991,50.4889829 C21.0498396,50.4889829 27.021982,56.4611055 27.021982,63.9999289 C27.021982,68.9776458 28.0164194,73.8108668 29.8664012,78.3670422 C31.7164114,82.7781527 34.4163341,86.7557752 37.8330504,90.1724801 C41.2440778,93.5834962 45.2274024,96.2890987 49.6385277,98.1391027 C54.1884605,100.127914 59.0273864,100.983512 64.0056888,100.983512 C68.9839913,100.983512 73.8166594,99.9890784 78.37285,98.1391027 C82.7839753,96.2890987 86.761611,93.589185 90.1783273,90.1724801 C93.5893548,86.761464 96.2949663,82.7781527 98.1449765,78.3670422 C100.133794,73.8171245 100.989396,68.9782147 100.989396,63.9999289 C100.989396,59.0216431 99.9949583,54.188991 98.1449765,49.6328156 C96.2949663,45.2217051 93.5950436,41.2440826 90.1783273,37.8273777 C86.7672998,34.4163616 82.7839753,31.7107591 78.37285,29.860755 C73.8229171,27.8719438 68.9839913,27.0163454 64.0056888,27.0163454 C56.6113368,27.0163454 50.4946978,21.0442228 50.4946978,13.5053994 C50.4891427,5.97212256 56.6057902,0 64.0001422,0 C72.6778962,0 81.0666572,1.70550804 88.8888099,4.97771694 C96.5664661,8.24992583 103.393925,12.7998436 109.227829,18.6331589 C115.061164,24.4664743 119.749904,31.2885065 122.883317,38.9721103 C126.294344,46.9331864 128,55.3217772 128,64.0000711 C128,72.678365 126.294486,81.0665292 123.022266,88.8886558 C119.750047,96.5662864 115.200114,103.393723 109.366779,109.227607 C103.533444,115.060923 96.7113892,119.749648 89.0277598,122.883049 C81.0666572,126.294065 72.6780384,127.999716 63.9997156,127.999716 L63.9998578,128 Z" id="Shape"></path>
            </g>
        </g>
    </g>
</svg>
