<?xml version="1.0" encoding="UTF-8" standalone="no"?>
<svg width="62px" height="51px" viewBox="0 0 62 51" version="1.1" xmlns="http://www.w3.org/2000/svg" xmlns:xlink="http://www.w3.org/1999/xlink">
    <!-- Generator: Sketch 40.3 (33839) - http://www.bohemiancoding.com/sketch -->
    <title>Page 1</title>
    <desc>Created with Sketch.</desc>
    <defs></defs>
    <g id="Page-1" stroke="none" stroke-width="1" fill="none" fill-rule="evenodd">
        <g fill="#000000">
            <path d="M47.25,38.25 L39,38.25 C38,38.25 38,36.75 39,36.75 L47.25,36.75 C54.059,36.75 60,30.262 60,22.875 C60,15.66 54.496,9.797 47.73,9.797 C46.352,9.762 44.977,9.973 43.672,10.426 L43.07,10.645 L42.754,10.09 C39.934,4.906 34.543,1.648 28.641,1.559 C20.414,1.691 13.527,7.836 12.465,15.996 L12.375,16.656 L11.504,16.656 C6.57,16.648 2.25,21.344 2.25,26.684 C2.25,32.023 6.602,36.75 11.574,36.75 L24,36.75 C25,36.75 25,38.25 24,38.25 L11.574,38.25 C5.805,38.25 0.75,32.844 0.75,26.684 C0.75,20.684 5.527,15.434 11.094,15.133 C12.539,6.523 19.93,0.18 28.66,0.059 C34.887,0.133 40.621,3.449 43.785,8.812 C45.074,8.441 46.41,8.27 47.754,8.297 C55.352,8.297 61.5,14.836 61.5,22.875 C61.5,31.066 54.855,38.25 47.25,38.25 L47.25,38.25 Z" id="Fill-1"></path>
            <path d="M31.5,51 L31.5,51 C31.086,51 30.75,50.664 30.75,50.25 L30.75,20.25 C30.75,19.25 32.25,19.25 32.25,20.25 L32.25,50.25 C32.25,50.664 31.914,51 31.5,51 L31.5,51 Z" id="Fill-2"></path>
            <path d="M39,27.75 L39,27.75 C38.812,27.75 38.637,27.68 38.496,27.555 L31.5,21.262 L24.504,27.562 C23.758,28.234 22.754,27.113 23.5,26.445 L31.5,19.238 L39.504,26.438 C40.023,26.898 39.695,27.758 39,27.75 L39,27.75 Z" id="Fill-3"></path>
        </g>
    </g>
</svg>