<?xml version="1.0" encoding="UTF-8" standalone="no"?>
<svg width="76px" height="40px" viewBox="0 0 76 40" version="1.1" xmlns="http://www.w3.org/2000/svg" xmlns:xlink="http://www.w3.org/1999/xlink" xmlns:sketch="http://www.bohemiancoding.com/sketch/ns">
    <!-- Generator: Sketch 3.3 (11970) - http://www.bohemiancoding.com/sketch -->
    <title>DM Copy</title>
    <desc>Created with Sketch.</desc>
    <defs>
        <rect id="path-1" x="13" y="20" width="97" height="74"></rect>
    </defs>
    <g id="Welcome" stroke="none" stroke-width="1" fill="none" fill-rule="evenodd" sketch:type="MSPage">
        <g id="Desktop-HD" sketch:type="MSArtboardGroup" transform="translate(-10.000000, -975.000000)">
            <g id="Vertical-Nav" sketch:type="MSLayerGroup" transform="translate(-42.000000, -4.000000)">
                <g id="DM-Copy" transform="translate(18.000000, 936.000000)">
                    <path d="M92.5,81.5 L108.134656,45.019135" id="Line" stroke="#000000" stroke-width="2" stroke-linecap="square" sketch:type="MSShapeGroup"></path>
                    <mask id="mask-2" sketch:name="Mask" fill="white">
                        <use xlink:href="#path-1"></use>
                    </mask>
                    <use id="Mask" sketch:type="MSShapeGroup" transform="translate(61.500000, 57.000000) rotate(30.000000) translate(-61.500000, -57.000000) " xlink:href="#path-1"></use>
                    <path d="M34.422,44.04 L34.422,57 L41.172,57 C42.684,57 43.728,55.956 43.728,54.444 L43.728,46.596 C43.728,45.084 42.684,44.04 41.172,44.04 L34.422,44.04 Z M37.014,54.552 L37.014,46.488 L40.524,46.488 C40.92,46.488 41.136,46.704 41.136,47.1 L41.136,53.94 C41.136,54.336 40.92,54.552 40.524,54.552 L37.014,54.552 Z M55.824,57 L53.664,52.086 C54.744,51.78 55.428,50.862 55.428,49.638 L55.428,46.596 C55.428,45.084 54.384,44.04 52.872,44.04 L46.266,44.04 L46.266,57 L48.858,57 L48.858,52.194 L50.946,52.194 L53.034,57 L55.824,57 Z M52.836,49.17 C52.836,49.566 52.62,49.782 52.224,49.782 L48.858,49.782 L48.858,46.488 L52.224,46.488 C52.62,46.488 52.836,46.704 52.836,47.1 L52.836,49.17 Z M60.378,54.084 L64.572,54.084 L65.418,57 L68.208,57 L64.032,44.04 L61.008,44.04 L56.832,57 L59.514,57 L60.378,54.084 Z M62.502,46.884 L63.87,51.636 L61.098,51.636 L62.502,46.884 Z M69.918,57 L72.51,57 L72.51,51.708 L77.28,51.708 L77.28,49.26 L72.51,49.26 L72.51,46.488 L78.396,46.488 L78.396,44.04 L69.918,44.04 L69.918,57 Z M88.746,46.452 L88.746,44.04 L79.386,44.04 L79.386,46.452 L82.77,46.452 L82.77,57 L85.362,57 L85.362,46.452 L88.746,46.452 Z M95.946,57 L95.946,52.518 L99.942,44.04 L97.098,44.04 L94.65,49.584 L92.202,44.04 L89.358,44.04 L93.354,52.518 L93.354,57 L95.946,57 Z M46.806,65.04 L43.962,65.04 L40.614,72.636 L37.266,65.04 L34.422,65.04 L34.422,78 L36.87,78 L36.87,69.36 L39.678,75.93 L41.55,75.93 L44.358,69.36 L44.358,78 L46.806,78 L46.806,65.04 Z M49.65,65.04 L49.65,78 L58.128,78 L58.128,75.552 L52.242,75.552 L52.242,72.6 L57.012,72.6 L57.012,70.152 L52.242,70.152 L52.242,67.488 L58.128,67.488 L58.128,65.04 L49.65,65.04 Z M60.414,65.04 L60.414,78 L67.164,78 C68.676,78 69.72,76.956 69.72,75.444 L69.72,67.596 C69.72,66.084 68.676,65.04 67.164,65.04 L60.414,65.04 Z M63.006,75.552 L63.006,67.488 L66.516,67.488 C66.912,67.488 67.128,67.704 67.128,68.1 L67.128,74.94 C67.128,75.336 66.912,75.552 66.516,75.552 L63.006,75.552 Z M72.258,78 L74.85,78 L74.85,65.04 L72.258,65.04 L72.258,78 Z M80.106,75.084 L84.3,75.084 L85.146,78 L87.936,78 L83.76,65.04 L80.736,65.04 L76.56,78 L79.242,78 L80.106,75.084 Z M82.23,67.884 L83.598,72.636 L80.826,72.636 L82.23,67.884 Z" id="Drafty" fill="#000000" sketch:type="MSShapeGroup" mask="url(#mask-2)"></path>
                </g>
            </g>
        </g>
    </g>
</svg>