<?xml version="1.0" encoding="UTF-8"?>
<svg width="100pt" height="100pt" version="1.1" viewBox="0 0 100 100" xmlns="http://www.w3.org/2000/svg">
 <g>
  <path d="m50.074 35.551c-3.832 0.003907-7.5039 1.5273-10.211 4.2383-2.707 2.7109-4.2266 6.3867-4.2266 10.219 0.003906 3.832 1.5273 7.5078 4.2383 10.215 2.7109 2.707 6.3867 4.2266 10.215 4.2266 3.832 0 7.5078-1.5234 10.219-4.2344 2.707-2.707 4.2305-6.3828 4.2305-10.215-0.007812-3.832-1.5352-7.5078-4.2461-10.215-2.7109-2.707-6.3867-4.2305-10.219-4.2344zm0 25.164v-0.003906c-4.3242-0.003907-8.2227-2.6133-9.875-6.6094-1.6523-3.9961-0.73438-8.5977 2.3203-11.656 3.0586-3.0586 7.6602-3.9727 11.656-2.3203 3.9961 1.6523 6.6055 5.5508 6.6133 9.875-0.007812 5.9102-4.8008 10.699-10.715 10.699z"/>
  <path d="m83.125 42.5h-7.7617c-0.52344-1.7852-1.2383-3.5039-2.125-5.1367l5.5117-5.4883c0.73047-0.73047 0.73047-1.918 0-2.6484l-7.9766-7.9766c-0.73047-0.73047-1.918-0.73047-2.6484 0l-5.4883 5.5c-1.6328-0.88281-3.3555-1.5938-5.1367-2.1133v-7.7617c0-1.0352-0.83984-1.875-1.875-1.875h-11.25c-1.0352 0-1.875 0.83984-1.875 1.875v7.7891c-1.7695 0.52344-3.4805 1.2383-5.1016 2.125l-5.5234-5.5391c-0.74219-0.70312-1.9062-0.70312-2.6484 0l-7.9766 7.9766c-0.73047 0.73047-0.73047 1.918 0 2.6484l5.5508 5.5508c-0.85938 1.6133-1.5469 3.3164-2.0508 5.0742h-7.875c-1.0352 0-1.875 0.83984-1.875 1.875v11.25c0 1.0352 0.83984 1.875 1.875 1.875h7.8984c0.52344 1.7344 1.2227 3.4102 2.0898 5l-5.6133 5.625c-0.73047 0.73047-0.73047 1.918 0 2.6484l7.9766 7.9766c0.73047 0.73047 1.918 0.73047 2.6484 0l5.625-5.6133c1.5898 0.86719 3.2656 1.5664 5 2.0898v7.8984c0 1.0352 0.83984 1.875 1.875 1.875h11.25c1.0352 0 1.875-0.83984 1.875-1.875v-7.8633c1.7578-0.51562 3.4531-1.2148 5.0625-2.0859l5.5625 5.5742c0.73047 0.73047 1.918 0.73047 2.6484 0l7.9766-7.9766c0.73047-0.73047 0.73047-1.918 0-2.6484l-5.5117-5.5117c0.87109-1.6289 1.5703-3.3398 2.0859-5.1133h7.8008c1.0352 0 1.875-0.83984 1.875-1.875v-11.25c0-1.0352-0.83984-1.875-1.875-1.875zm-1.875 11.25h-7.3516c-0.86719 0-1.6211 0.59375-1.8242 1.4375-0.57031 2.375-1.5156 4.6445-2.8008 6.7266-0.45703 0.73828-0.34766 1.6953 0.26562 2.3125l5.2109 5.2109-5.3008 5.3125-5.2383-5.2383c-0.61328-0.61719-1.5703-0.73047-2.3125-0.27344-2.0703 1.2734-4.332 2.1992-6.6992 2.75-0.82422 0.19141-1.4219 0.91406-1.4492 1.7617v7.5h-7.5v-7.5c0-0.86719-0.59375-1.6211-1.4375-1.8242-2.3555-0.55859-4.6055-1.4922-6.6641-2.7617-0.73828-0.46094-1.6953-0.35156-2.3125 0.26172l-5.2852 5.3242-5.3008-5.3008 5.2891-5.2891v0.003906c0.61328-0.61719 0.71875-1.5742 0.26172-2.3125-1.2734-2.0586-2.207-4.3086-2.7617-6.6641-0.19922-0.83203-0.93359-1.4219-1.7891-1.4375h-7.5v-7.5h7.5c0.87109 0 1.6289-0.60156 1.8242-1.4492 0.55078-2.3672 1.4805-4.6289 2.75-6.6992 0.45703-0.74219 0.34375-1.6992-0.27344-2.3125l-5.3008-5.2383 5.3008-5.3008 5.2109 5.2109c0.61719 0.61328 1.5742 0.72266 2.3125 0.26562 2.0742-1.293 4.3477-2.2383 6.7266-2.8008 0.84766-0.19922 1.4492-0.95312 1.4492-1.8242v-7.3516h7.5v7.3242c0 0.87109 0.60156 1.6289 1.4492 1.8242 2.3906 0.55469 4.6758 1.4961 6.7617 2.7891 0.73828 0.46094 1.6992 0.35156 2.3125-0.26172l5.1758-5.1758 5.3008 5.3008-5.1758 5.1758c-0.61328 0.61328-0.72266 1.5742-0.26172 2.3125 1.293 2.0859 2.2344 4.3711 2.7891 6.7617 0.19531 0.84766 0.95313 1.4492 1.8242 1.4492h7.3242z"/>
 </g>
</svg>
