<svg xmlns="http://www.w3.org/2000/svg" xmlns:xlink="http://www.w3.org/1999/xlink" version="1.1" x="0px" y="0px" viewBox="0 0 100 100" enable-background="new 0 0 100 100" xml:space="preserve"><path d="M57.234,87.168C56.055,90.002,53.256,92,50,92s-6.054-1.998-7.234-4.832H57.234 M60.832,84.168H39.168  C39.169,90.15,44.018,95,50,95C55.98,95,60.831,90.15,60.832,84.168L60.832,84.168z"></path><path d="M50,8c1.78,0,3.229,1.448,3.229,3.229c0,0.371-0.068,0.743-0.202,1.107l-1.182,3.204l3.329,0.759  c10.59,2.416,17.985,11.698,17.985,22.571v11.958c0,10.534,5.537,20.044,14.573,25.25v1.148H12.268v-1.148  c9.036-5.207,14.573-14.718,14.573-25.25V38.87c0-10.874,7.396-20.155,17.986-22.571l3.324-0.758l-1.176-3.201  c-0.135-0.368-0.204-0.742-0.204-1.111C46.771,9.448,48.22,8,50,8 M50,5c-3.44,0-6.229,2.789-6.229,6.229  c0,0.755,0.142,1.476,0.388,2.146C32.525,16.028,23.841,26.432,23.841,38.87v11.958c0,10.286-5.939,19.181-14.573,23.454v5.944  h81.465v-5.944c-8.634-4.272-14.573-13.168-14.573-23.454V38.87c0-12.438-8.685-22.842-20.318-25.496  c0.247-0.67,0.388-1.391,0.388-2.146C56.229,7.789,53.439,5,50,5L50,5z"></path></svg>