<?xml version="1.0" encoding="UTF-8"?>
<svg width="100pt" height="100pt" version="1.1" viewBox="0 0 100 100" xmlns="http://www.w3.org/2000/svg">
 <g>
  <path d="m6.5781 84.328h86.844v-68.656h-86.844zm8-60.648h70.844v33.32l-16.152-12.711-18.27 15.891-23.922-27-12.5 13.41zm0 34.648l12.344-13.25 23.34 26.332 19.258-16.73 15.898 12.539v9.1094h-70.84z"/>
  <path d="m50 48.789c4.8555 0 9.2305-2.9219 11.086-7.4062 1.8594-4.4844 0.83203-9.6445-2.6016-13.078-3.4297-3.4336-8.5938-4.457-13.078-2.6016-4.4844 1.8594-7.4062 6.2344-7.4062 11.086 0 6.6289 5.3711 12 12 12zm0-16c1.6172 0 3.0781 0.97656 3.6953 2.4688 0.62109 1.4961 0.27734 3.2148-0.86719 4.3594-1.1445 1.1445-2.8633 1.4883-4.3594 0.86719-1.4961-0.61719-2.4688-2.0781-2.4688-3.6953-0.003906-1.0625 0.41406-2.0859 1.1641-2.8398 0.75-0.75391 1.7734-1.1797 2.8359-1.1797z"/>
 </g>
</svg>
