<?xml version="1.0" encoding="UTF-8"?>
<svg width="388px" height="117px" viewBox="0 0 388 117" version="1.1" xmlns="http://www.w3.org/2000/svg" xmlns:xlink="http://www.w3.org/1999/xlink">
    <!-- Generator: Sketch 41.2 (35397) - http://www.bohemiancoding.com/sketch -->
    <title>Artboard</title>
    <desc>Created with Sketch.</desc>
    <defs></defs>
    <g id="Page-1" stroke="none" stroke-width="1" fill="none" fill-rule="evenodd">
        <g id="Artboard" fill="#000">
            <g id="THE-Drab">
                <g id="Group">
                    <path d="M0.314,114.723 C6.344,76.516 12.341,38.526 18.356,0.415 L19.712,0.415 C35.387,0.415 51.067,0.196 66.737,0.49 C77.888,0.699 88.703,2.911 98.696,8.224 C110.48,14.49 117.728,24.205 119.513,37.382 C122.328,58.153 117.532,77.03 103.602,93.052 C94.265,103.791 82.232,110.104 68.406,113.117 C63.073,114.279 57.666,114.72 52.219,114.721 C35.504,114.727 18.788,114.723 2.073,114.723 L0.314,114.723 Z M47.295,80.393 C47.649,80.452 47.878,80.519 48.108,80.524 C51.998,80.61 55.864,80.362 59.619,79.293 C66.279,77.397 71.861,73.978 75.107,67.592 C77.761,62.373 78.622,56.773 78.129,50.965 C77.607,44.815 74.632,40.395 68.846,37.988 C64.387,36.134 59.69,35.933 54.963,36.003 C54.667,36.007 54.187,36.613 54.12,36.996 C53.573,40.14 53.106,43.297 52.609,46.45 C51.112,55.946 49.612,65.441 48.117,74.938 C47.835,76.739 47.574,78.544 47.295,80.393 Z" id="Shape"></path>
                    <path d="M301.603,0.463 L340.589,0.463 C338.158,15.194 335.735,29.876 333.312,44.558 C333.462,44.662 333.614,44.767 333.764,44.872 C333.966,44.539 334.112,44.15 334.377,43.88 C340.274,37.904 347.289,33.861 355.617,32.657 C368.179,30.841 378.915,36.355 384.047,49.135 C386.545,55.358 387.321,61.874 386.969,68.529 C386.258,81.921 381.543,93.744 372.703,103.828 C367.446,109.826 361.037,114.094 353.113,115.834 C341.419,118.402 330.237,114.033 323.417,104.196 C323.128,103.779 322.839,103.361 322.361,102.671 C322.008,104.566 321.702,106.154 321.419,107.747 C321.07,109.711 320.731,111.678 320.412,113.647 C320.296,114.367 320.047,114.743 319.194,114.741 C307.636,114.713 296.08,114.722 284.522,114.718 C284.251,114.718 283.98,114.658 283.585,114.612 C289.592,76.563 295.588,38.573 301.603,0.463 Z M339.469,62.906 C336.287,62.877 333.621,64.056 331.492,66.398 C328.423,69.773 327.075,73.731 327.599,78.292 C328.267,84.093 332.738,87.143 338.384,85.651 C344.28,84.092 349.112,76.528 348.043,70.529 C347.202,65.804 343.91,62.877 339.469,62.906 Z" id="Shape"></path>
                    <path d="M253.412,43.468 C253.811,40.383 254.199,37.393 254.6,34.294 L292.857,34.294 C292.574,36.148 292.303,37.979 292.014,39.807 C290.693,48.164 289.364,56.521 288.041,64.878 C286.725,73.196 285.416,81.516 284.101,89.834 C282.855,97.719 281.594,105.601 280.37,113.489 C280.242,114.316 280.042,114.746 279.06,114.744 C266.982,114.711 254.905,114.723 242.828,114.72 C242.592,114.72 242.357,114.686 241.893,114.65 C242.517,111.201 243.13,107.818 243.81,104.058 C243.201,104.569 242.851,104.85 242.515,105.146 C238.996,108.246 235.322,111.143 231.142,113.305 C221.47,118.309 206.855,118.249 198.029,108.346 C193.767,103.563 191.378,97.893 190.136,91.66 C186.49,73.353 194.947,51.11 209.865,39.897 C216.704,34.756 224.337,31.999 232.962,32.34 C240.829,32.652 247.562,35.268 252.207,42.014 C252.501,42.441 252.778,42.881 253.067,43.312 C253.087,43.34 253.138,43.346 253.412,43.468 Z M228.525,76.306 C228.525,76.946 228.458,77.594 228.536,78.223 C228.941,81.467 230.203,84.157 233.496,85.389 C237.569,86.911 242.708,85.661 245.616,82.45 C248.646,79.102 249.897,75.096 249.69,70.647 C249.529,67.189 247.204,64.28 243.884,63.34 C240.839,62.478 237.828,62.684 235.103,64.395 C230.741,67.134 228.55,71.139 228.525,76.306 Z" id="Shape"></path>
                    <path d="M188.054,71.895 C187.033,71.268 186.155,70.789 185.339,70.22 C177.347,64.646 162.164,67.282 159.192,81.456 C158.177,86.295 157.543,91.214 156.762,96.1 C155.78,102.247 154.825,108.399 153.846,114.629 L114.819,114.629 C115.099,112.775 115.36,110.977 115.643,109.182 C117.217,99.206 118.794,89.232 120.376,79.258 C121.939,69.403 123.514,59.549 125.078,49.693 C125.834,44.923 126.589,40.152 127.313,35.377 C127.428,34.619 127.575,34.16 128.524,34.163 C140.922,34.193 153.321,34.183 165.719,34.185 C165.954,34.185 166.19,34.223 166.552,34.253 C166.023,37.72 165.503,41.128 164.983,44.535 C165.05,44.58 165.117,44.625 165.183,44.671 C165.479,44.341 165.782,44.017 166.07,43.681 C169.765,39.362 173.955,35.734 179.55,34.096 C184.153,32.748 188.883,32.366 193.653,32.335 C193.806,32.334 193.96,32.388 194.226,32.437 C192.176,45.543 190.131,58.618 188.054,71.895 Z" id="Shape"></path>
                    <path d="M254.803,28.332 L244.686,28.332 C246.22,19.082 247.744,9.898 249.274,0.672 L259.367,0.672 C258.88,3.758 258.4,6.796 257.895,9.989 C260.016,9.989 262.004,10.015 263.99,9.953 C264.21,9.946 264.546,9.464 264.602,9.16 C265.033,6.848 265.404,4.525 265.801,2.206 C265.887,1.703 266.001,1.205 266.106,0.686 L276.136,0.686 C275.848,2.582 275.595,4.384 275.297,6.178 C274.114,13.295 272.926,20.411 271.705,27.522 C271.65,27.839 271.257,28.341 271.014,28.345 C267.864,28.401 264.711,28.382 261.474,28.382 C262.01,25.129 262.526,21.998 263.072,18.686 C260.926,18.686 258.94,18.66 256.958,18.723 C256.739,18.73 256.403,19.223 256.347,19.532 C255.809,22.428 255.321,25.333 254.803,28.332 Z" id="Shape"></path>
                    <path d="M273.53,28.384 C275.074,19.063 276.591,9.906 278.118,0.685 L297.68,0.685 C297.3,3.034 296.955,5.306 296.528,7.562 C296.489,7.769 295.919,8.001 295.591,8.007 C293.432,8.048 291.269,8.1 289.114,8.001 C287.873,7.944 287.215,8.259 287.258,9.593 C287.271,9.973 287.139,10.358 287.047,10.889 L295.206,10.889 C294.802,13.336 294.422,15.633 294.019,18.065 L287.656,18.065 C285.427,18.065 285.829,17.954 285.561,19.858 C285.523,20.125 285.496,20.393 285.449,20.782 L294.661,20.782 C294.259,23.264 293.893,25.609 293.47,27.943 C293.437,28.127 293.004,28.363 292.756,28.364 C286.403,28.388 280.05,28.384 273.53,28.384 Z" id="Shape"></path>
                    <path d="M236.885,28.34 L226.47,28.34 C227.521,22.012 228.562,15.741 229.619,9.373 L223.791,9.373 C224.06,7.624 224.317,5.912 224.588,4.201 C224.7,3.493 224.94,2.791 224.95,2.085 C224.966,0.901 225.438,0.569 226.629,0.581 C233.104,0.645 239.579,0.612 246.055,0.612 L247.439,0.612 C246.949,3.618 246.482,6.48 246.022,9.301 C244.343,9.301 242.757,9.34 241.174,9.283 C240.447,9.257 240.135,9.398 240.007,10.204 C239.09,15.95 238.111,21.685 237.145,27.422 C237.093,27.728 236.977,28.022 236.885,28.34 Z" id="Shape"></path>
                </g>
            </g>
        </g>
    </g>
</svg>
