<?xml version="1.0" encoding="UTF-8" standalone="no"?>
<svg width="168px" height="50px" viewBox="0 0 168 50" version="1.1" xmlns="http://www.w3.org/2000/svg" xmlns:xlink="http://www.w3.org/1999/xlink" xmlns:sketch="http://www.bohemiancoding.com/sketch/ns">
    <!-- Generator: Sketch 3.0.4 (8053) - http://www.bohemiancoding.com/sketch -->
    <title>logotype-site</title>
    <desc>Created with Sketch.</desc>
    <defs></defs>
    <g id="Page-1" stroke="none" stroke-width="1" fill="none" fill-rule="evenodd" sketch:type="MSPage">
        <g id="Artboard-1" sketch:type="MSArtboardGroup" transform="translate(-13.000000, -4.000000)" fill="#000000">
            <g id="prate-+-the-2" sketch:type="MSLayerGroup" transform="translate(13.000000, 5.000000)">
                <path d="M0.468,10.888 L2.52,10.888 L2.52,20.716 C2.52,23.812 3.96,25.324 6.804,25.324 C8.676,25.324 10.332,24.82 11.016,24.388 L10.62,21.256 C10.332,21.4 9.612,21.58 8.892,21.58 C7.956,21.58 7.452,21.184 7.452,19.996 L7.452,10.888 L10.908,10.888 L10.908,7.216 L7.452,7.216 L7.452,2.932 C3.996,2.716 2.772,3.508 2.772,5.416 L2.772,7.216 L0.468,7.216 L0.468,10.888 Z M13.14,25 L18.072,25 L18.072,11.788 C18.576,11.248 19.548,10.744 20.628,10.744 C21.708,10.744 22.176,11.392 22.176,12.58 L22.176,25 L27.072,25 L27.072,11.5 C27.072,8.332 25.776,6.532 22.752,6.532 C20.736,6.532 19.08,7.468 18.108,8.44 L18.072,3.472 C18.072,1.312 17.784,0.808 15.66,0.808 C14.4,0.808 13.14,1.276 13.14,1.276 L13.14,25 Z M29.628,15.892 C29.628,21.292 31.5,25.36 36.792,25.36 C39.564,25.36 41.472,24.784 42.66,24.1 C42.696,21.652 42.336,20.86 41.472,20.86 C40.788,20.86 39.708,21.472 37.8,21.472 C35.82,21.472 34.884,20.068 34.776,17.62 L43.02,17.62 C43.128,16.612 43.128,15.676 43.128,14.848 C43.128,9.304 41.436,6.532 37.008,6.532 C31.932,6.532 29.628,10.6 29.628,15.892 Z M38.664,14.416 L34.74,14.668 C34.74,12.616 35.208,11.176 35.316,10.78 C35.424,10.744 36.036,10.312 36.828,10.312 C38.232,10.312 38.772,11.86 38.664,14.416 Z" id="the" sketch:type="MSShapeGroup"></path>
                <path d="M72.928,22.936 C72.928,11.544 70.24,6.168 63.328,6.168 C59.296,6.168 56.288,8.92 55.456,9.688 C54.88,6.936 53.152,6.168 51.424,6.168 C49.824,6.168 48.032,6.296 47.136,6.488 L47.136,48.472 L55.776,48.472 L55.776,37.784 C56.736,38.552 58.848,39.64 61.856,39.64 C69.92,39.64 72.928,31.256 72.928,22.936 Z M63.776,23.192 C63.776,27.16 63.008,31.064 62.496,32.216 C62.368,32.216 61.472,32.664 59.68,32.664 C58.016,32.664 56.16,31.768 55.776,31.448 L55.776,14.744 C55.776,14.744 57.888,13.272 59.872,13.272 C62.304,13.272 63.776,14.296 63.776,23.192 Z M77.792,39 L86.56,39 L86.56,17.304 C87.968,15.896 90.016,14.872 92.768,14.872 C94.24,14.872 94.56,13.784 94.624,11.544 C94.688,9.816 94.56,7.704 94.24,6.168 C90.336,6.168 87.328,8.472 85.792,11.48 C85.216,7.576 84.704,6.168 82.08,6.168 C80.608,6.168 78.496,6.552 77.792,7 L77.792,39 Z M119.136,39.064 L119.136,17.048 C119.136,8.792 116,6.168 108.512,6.168 C103.776,6.168 99.232,7.32 96.48,8.6 C96.544,12.824 97.504,14.36 99.552,14.36 C101.344,14.36 104.224,13.272 106.656,13.272 C110.112,13.272 110.432,14.552 110.432,19.608 C99.936,20.248 95.52,22.744 95.52,30.36 C95.52,35.928 98.4,39.64 103.136,39.64 C106.912,39.64 109.472,37.976 111.136,35.928 C111.52,38.808 112.608,39.64 115.104,39.64 C116.448,39.64 118.048,39.384 119.136,39.064 Z M103.52,29.016 C103.52,27.8 103.712,26.52 104.16,25.56 C105.696,25.048 108.832,24.728 110.432,24.6 L110.432,31.064 C109.216,32.152 107.808,32.792 106.208,32.792 C104.416,32.792 103.52,31.384 103.52,29.016 Z M122.848,13.912 L126.496,13.912 L126.496,31.384 C126.496,36.888 129.056,39.576 134.112,39.576 C137.44,39.576 140.384,38.68 141.6,37.912 L140.896,32.344 C140.384,32.6 139.104,32.92 137.824,32.92 C136.16,32.92 135.264,32.216 135.264,30.104 L135.264,13.912 L141.408,13.912 L141.408,7.384 L135.264,7.384 L135.264,-0.232 C129.12,-0.616 126.944,0.792 126.944,4.184 L126.944,7.384 L122.848,7.384 L122.848,13.912 Z M143.968,22.808 C143.968,32.408 147.296,39.64 156.704,39.64 C161.632,39.64 165.024,38.616 167.136,37.4 C167.2,33.048 166.56,31.64 165.024,31.64 C163.808,31.64 161.888,32.728 158.496,32.728 C154.976,32.728 153.312,30.232 153.12,25.88 L167.776,25.88 C167.968,24.088 167.968,22.424 167.968,20.952 C167.968,11.096 164.96,6.168 157.088,6.168 C148.064,6.168 143.968,13.4 143.968,22.808 Z M160.032,20.184 L153.056,20.632 C153.056,16.984 153.888,14.424 154.08,13.72 C154.272,13.656 155.36,12.888 156.768,12.888 C159.264,12.888 160.224,15.64 160.032,20.184 Z" id="prate" sketch:type="MSShapeGroup"></path>
            </g>
        </g>
    </g>
</svg>