<?xml version="1.0" encoding="UTF-8"?>
<svg width="100pt" height="100pt" version="1.1" viewBox="0 0 100 100" xmlns="http://www.w3.org/2000/svg">
 <path d="m29.359 34.805c-3.8984 0-7.8594 1.5-10.859 4.4414-6 5.9375-6 15.602 0 21.539 6 5.8828 15.781 5.8828 21.781 0l7.2617-7.1992c0.78125-0.78125-0.35938-1.9219-1.1406-1.1406l-7.2617 7.1992c-5.3984 5.2812-14.102 5.2812-19.5 0-5.3984-5.3398-5.3984-13.922 0-19.262 5.3398-5.3398 14.102-5.3398 19.5 0l10.32 10.199 10.262 10.199c6 5.8828 15.781 5.8828 21.781 0 6-5.9375 6-15.602 0-21.539-3-2.9414-6.9609-4.4414-10.859-4.4414-3.9609 0-7.9219 1.5-10.922 4.4414l-9.7227 9.6641-9.7188-9.6602c-3-2.9414-6.9609-4.4414-10.922-4.4414zm41.281 1.6211c3.5391 0 7.0195 1.3203 9.7188 3.9609 5.3984 5.3398 5.3984 13.922 0 19.262-5.3984 5.2812-14.102 5.2812-19.5 0l-9.7188-9.6602 9.7188-9.6016c2.6992-2.6406 6.2422-3.9609 9.7812-3.9609z"/>
</svg>
