<?xml version="1.0" encoding="UTF-8"?>
<svg width="100pt" height="100pt" version="1.1" viewBox="0 0 100 100" xmlns="http://www.w3.org/2000/svg">
 <path d="m81.668 56.668h-66.668c-5.5117 0-10 4.4883-10 10s4.4883 10 10 10h66.668c3.6758 0 6.668 2.9883 6.668 6.668 0 3.6758-2.9883 6.668-6.668 6.668l-58.336-0.003906v3.332h58.332c5.5117 0 10-4.4883 10-10s-4.4883-10-10-10h-66.668c-3.6758 0-6.668-2.9883-6.668-6.668 0-3.6758 2.9883-6.668 6.668-6.668h66.668c5.5117 0 10-4.4883 10-10 0-5.5117-4.4883-10-10-10h-66.668c-3.6758 0-6.668-2.9883-6.668-6.668 0-3.6758 2.9883-6.668 6.668-6.668h66.668c5.5117 0 10-4.4883 10-10 0-5.5117-4.4883-10-10-10l-58.332 0.007813v3.332h58.332c3.6758 0 6.668 2.9883 6.668 6.668 0 3.6758-2.9883 6.668-6.668 6.668h-66.668c-5.5117 0-10 4.4883-10 10 0 5.5117 4.4883 10 10 10h66.668c3.6758 0 6.668 2.9883 6.668 6.668 0 3.6719-2.9883 6.6641-6.6641 6.6641z"/>
</svg>
