<?xml version="1.0" encoding="UTF-8"?>
<svg width="100pt" height="100pt" version="1.1" viewBox="0 0 100 100" xmlns="http://www.w3.org/2000/svg">
 <path d="m6 18v64h88v-64zm2 2h84v51.406l-19.25-21.094c-0.22266-0.24609-0.57812-0.36719-0.90625-0.3125-0.21484 0.039062-0.41406 0.15234-0.5625 0.3125l-15.062 16-21.469-24c-0.22266-0.24609-0.57812-0.36719-0.90625-0.3125-0.21484 0.039062-0.41406 0.15234-0.5625 0.3125l-25.281 27.156zm49 10c-3.8555 0-7 3.1445-7 7s3.1445 7 7 7 7-3.1445 7-7-3.1445-7-7-7zm-0.5 2c0.16797-0.015625 0.32812 0 0.5 0 2.7734 0 5 2.2266 5 5s-2.2266 5-5 5-5-2.2266-5-5c0-2.6016 1.9688-4.7461 4.5-5zm-22.531 12.469l31.812 35.531h-57.781v-7.6562zm38.031 8l20 21.906v5.625h-23.531l-10.906-12.188z"/>
</svg>
