<?xml version="1.0" encoding="UTF-8"?>
<svg width="100pt" height="100pt" version="1.1" viewBox="0 0 100 100" xmlns="http://www.w3.org/2000/svg">
 <g>
  <path d="m36.059 24.023h49.641c0.76562 0 1.3828-0.625 1.3828-1.3906 0-0.76562-0.61719-1.3867-1.3828-1.3867h-49.641c-0.76562 0-1.3867 0.625-1.3867 1.3867 0 0.76563 0.625 1.3906 1.3867 1.3906z"/>
  <path d="m85.699 48.613h-49.641c-0.76562 0-1.3867 0.625-1.3867 1.3906s0.625 1.3867 1.3867 1.3867h49.641c0.76562 0 1.3828-0.62109 1.3828-1.3867 0-0.76953-0.62109-1.3906-1.3828-1.3906z"/>
  <path d="m85.699 75.984h-49.641c-0.76562 0-1.3867 0.62109-1.3867 1.3867s0.625 1.3906 1.3867 1.3906h49.641c0.76562 0 1.3828-0.625 1.3828-1.3906s-0.62109-1.3867-1.3828-1.3867z"/>
  <path d="m19.613 15.934c-3.6914 0-6.6953 3.0039-6.6953 6.6953 0 3.6953 3.0039 6.7031 6.6914 6.7031 3.6914 0 6.6953-3.0078 6.6953-6.7031 0-3.6914-3-6.6953-6.6914-6.6953zm3.9141 6.6953c0 2.168-1.7578 3.9258-3.918 3.9258s-3.9141-1.7578-3.9141-3.9258c0-2.1641 1.7539-3.918 3.9141-3.918s3.918 1.7617 3.918 3.918z"/>
  <path d="m19.613 43.309c-3.6914 0-6.6914 3.0039-6.6914 6.6953 0 3.6875 3.0039 6.6875 6.6914 6.6875 3.6914 0 6.6953-3 6.6953-6.6875-0.003906-3.6914-3.0039-6.6953-6.6953-6.6953zm3.9141 6.6953c0 2.1523-1.7578 3.9102-3.918 3.9102s-3.9141-1.7539-3.9141-3.9102c0-2.1641 1.7539-3.918 3.9141-3.918s3.918 1.7539 3.918 3.918z"/>
  <path d="m19.613 70.676c-3.6914 0-6.6914 3.0039-6.6914 6.6914 0 3.6953 3.0039 6.6992 6.6914 6.6992 3.6914 0 6.6953-3.0039 6.6953-6.6992-0.003906-3.6875-3.0039-6.6914-6.6953-6.6914zm3.9141 6.6914c0 2.168-1.7578 3.9258-3.918 3.9258s-3.9141-1.7578-3.9141-3.9258c0-2.1641 1.7539-3.918 3.9141-3.918s3.918 1.7578 3.918 3.918z"/>
 </g>
</svg>
