<?xml version="1.0" encoding="UTF-8"?>
<svg width="100pt" height="100pt" version="1.1" viewBox="0 0 100 100" xmlns="http://www.w3.org/2000/svg">
 <path d="m15.812 26.98c-0.47656 0.089843-0.82031 0.51562-0.8125 1v21.008c0 0.55469 0.44922 1 1 1h12.781c-1.3086 7.582-7.082 11.582-13.156 14.035v0.003906c-0.33594 0.12891-0.57031 0.42969-0.625 0.78516-0.050781 0.35547 0.09375 0.71094 0.375 0.93359l9 7.0352c0.25 0.18359 0.57422 0.24219 0.875 0.15625 6.6562-1.793 11.645-4.5078 14.934-8.5977 3.2891-4.0898 4.8125-9.4492 4.8125-16.352v-20.008c0-0.55078-0.44922-1-1-1h-27.996c-0.0625-0.003907-0.125-0.003907-0.1875 0zm39.996 0c-0.48047 0.089843-0.82422 0.51562-0.8125 1v21.008c0 0.55469 0.44531 1 1 1h12.781c-1.3086 7.582-7.082 11.582-13.156 14.035v0.003906c-0.33594 0.12891-0.57422 0.42969-0.625 0.78516-0.050782 0.35547 0.089844 0.71094 0.375 0.93359l9 7.0352h-0.003906c0.25391 0.18359 0.57812 0.24219 0.875 0.15625 6.6562-1.793 11.645-4.5078 14.934-8.5977 3.2891-4.0898 4.8125-9.4492 4.8125-16.352v-20.008h0.003907c0-0.55078-0.44922-1-1-1h-27.996c-0.0625-0.003907-0.125-0.003907-0.1875 0zm-38.809 2h25.996v19.008c0 6.6094-1.4297 11.441-4.375 15.102-2.8672 3.5625-7.2617 6.0625-13.406 7.7852l-7.3438-5.7539c6.1836-2.8086 12.215-7.4805 13.125-16.039 0.027344-0.28125-0.066406-0.55859-0.25391-0.76953-0.19141-0.20703-0.46094-0.32422-0.74609-0.32422h-13v-19.008zm39.996 0h25.996v19.008c0 6.6094-1.4297 11.441-4.375 15.102-2.8672 3.5625-7.2617 6.0625-13.406 7.7852l-7.3438-5.7539c6.1836-2.8086 12.215-7.4805 13.125-16.039 0.027343-0.28125-0.066407-0.55859-0.25781-0.76953-0.19141-0.20703-0.46094-0.32422-0.74219-0.32422h-13v-19.008z"/>
</svg>
