<?xml version="1.0" encoding="UTF-8"?>
<svg width="100pt" height="100pt" version="1.1" viewBox="0 0 100 100" xmlns="http://www.w3.org/2000/svg">
 <path d="m85 12.012c4.3984 0 8 3.6016 8 8v40c0 4.3984-3.6016 8-8 8h-8.9688l1.8125 17.781c0.074219 0.80469-0.39453 1.6328-1.125 1.9805-0.72656 0.35156-1.668 0.20312-2.25-0.35547l-19.469-19.406h-7v3.0625c0 3.2617-2.7031 5.9375-5.9688 5.9375h-15.031l-10.594 10.406c-0.60156 0.59375-1.5938 0.74219-2.3398 0.34766s-1.1875-1.2969-1.0352-2.1289l1.5312-8.625h-1.5938c-3.2656 0-5.9688-2.6758-5.9688-5.9375v-19.125c0-3.2617 2.7031-5.9375 5.9688-5.9375h6.0312v-26c0-4.3984 3.6016-8 8-8zm0 4h-58c-2.25 0-4 1.75-4 4v40c0 2.25 1.75 4 4 4h28.812c0.51953 0 1.0352 0.20312 1.4062 0.5625l16.094 16.031-1.5-14.406c-0.10547-1.1094 0.88672-2.1914 2-2.1875h11.188c2.25 0 4-1.75 4-4v-40c0-2.25-1.75-4-4-4zm-9 17c3.8438 0 7 3.1562 7 7s-3.1562 7-7 7-7-3.1562-7-7 3.1562-7 7-7zm-20.031 0c3.8438 0 7 3.1562 7 7s-3.1562 7-7 7-7-3.1562-7-7 3.1562-7 7-7zm-19.969 0c3.8438 0 7 3.1562 7 7s-3.1562 7-7 7-7-3.1562-7-7 3.1562-7 7-7zm40 4c-1.6797 0-3 1.3203-3 3 0 1.6797 1.3203 3 3 3s3-1.3203 3-3c0-1.6797-1.3203-3-3-3zm-20.031 0c-1.6797 0-3 1.3203-3 3 0 1.6797 1.3203 3 3 3s3-1.3203 3-3c0-1.6797-1.3203-3-3-3zm-19.969 0c-1.6797 0-3 1.3203-3 3 0 1.6797 1.3203 3 3 3s3-1.3203 3-3c0-1.6797-1.3203-3-3-3zm-17 13h-6.0312c-1.1289 0-1.9688 0.84375-1.9688 1.9375v19.125c0 1.0938 0.83984 1.9375 1.9688 1.9375h3.9688c1.1602 0 2.168 1.1992 1.9688 2.3438l-0.84375 4.8438 6.7188-6.625c0.37109-0.35938 0.88672-0.56641 1.4062-0.5625h15.844c1.1289 0 1.9688-0.84375 1.9688-1.9375v-3.0625h-17c-4.3984 0-8-3.6016-8-8z"/>
</svg>
